<svg aria-hidden="true" style="position: absolute; width: 0; height: 0; overflow: hidden;" version="1.1" xmlns="http://www.w3.org/2000/svg" xmlns:xlink="http://www.w3.org/1999/xlink" >
  <defs>
    <symbol id="search" width="16" height="16" viewBox="0 0 16 16">
      <path d="M11.742 10.344a6.5 6.5 0 1 0-1.397 1.398h-.001q.044.06.098.115l3.85 3.85a1 1 0 0 0 1.415-1.414l-3.85-3.85a1 1 0 0 0-.115-.1zM12 6.5a5.5 5.5 0 1 1-11 0 5.5 5.5 0 0 1 11 0"/>
    </symbol>
    <symbol id="close" viewBox="0 0 8 8">
      <path d="M8 0.805714L7.19429 0L4 3.19429L0.805714 0L0 0.805714L3.19429 4L0 7.19429L0.805714 8L4 4.80571L7.19429 8L8 7.19429L4.80571 4L8 0.805714Z"/>
    </symbol>

   <svg xmlns="http://www.w3.org/2000/svg" id="go-back" viewBox="0 0 16 16">
      <path fill-rule="evenodd" d="M1 8a7 7 0 1 0 14 0A7 7 0 0 0 1 8m15 0A8 8 0 1 1 0 8a8 8 0 0 1 16 0m-4.5-.5a.5.5 0 0 1 0 1H5.707l2.147 2.146a.5.5 0 0 1-.708.708l-3-3a.5.5 0 0 1 0-.708l3-3a.5.5 0 1 1 .708.708L5.707 7.5z"/>
  </svg>
  <svg xmlns="http://www.w3.org/2000/svg" id="no-photo" viewBox="0 0 16 16">
    <path d="M13.879 10.414a2.501 2.501 0 0 0-3.465 3.465zm.707.707-3.465 3.465a2.501 2.501 0 0 0 3.465-3.465m-4.56-1.096a3.5 3.5 0 1 1 4.949 4.95 3.5 3.5 0 0 1-4.95-4.95ZM11 5a3 3 0 1 1-6 0 3 3 0 0 1 6 0M8 7a2 2 0 1 0 0-4 2 2 0 0 0 0 4m.256 7a4.5 4.5 0 0 1-.229-1.004H3c.001-.246.154-.986.832-1.664C4.484 10.68 5.711 10 8 10q.39 0 .74.025c.226-.341.496-.65.804-.918Q8.844 9.002 8 9c-5 0-6 3-6 4s1 1 1 1z"/>
  </svg>
  </defs>
</svg>